<?xml version="1.0" encoding="UTF-8" standalone="no"?>
<!-- Created with Inkscape (http://www.inkscape.org/) -->

<svg
   width="512"
   height="512"
   viewBox="0 0 512 512"
   version="1.1"
   id="svg1"
   xmlns="http://www.w3.org/2000/svg"
   xmlns:svg="http://www.w3.org/2000/svg">
  <defs
     id="defs1">
    <filter
       style="color-interpolation-filters:sRGB"
       id="filter4"
       x="-0.069721074"
       y="-0.069721074"
       width="1.1394421"
       height="1.1394421">
      <feGaussianBlur
         stdDeviation="12.888866"
         id="feGaussianBlur4" />
    </filter>
  </defs>
  <g
     id="layer1">
    <path
       style="fill:#1c241f;stroke-opacity:0.985749;filter:url(#filter4)"
       id="circle3"
       d="M 256,34.164062 C 133.43279,34.164062 34.164062,133.43279 34.164062,256 34.164062,378.56721 133.43279,477.83594 256,477.83594 378.56721,477.83594 477.83594,378.56721 477.83594,256 477.83594,133.43279 378.56721,34.164062 256,34.164062 Z" />
    <circle
       style="fill:#f9f9f9;stroke-opacity:0.985749"
       id="path1"
       cx="256"
       cy="256"
       r="211.83673" />
    <circle
       style="fill:#00aad4;stroke-width:0.896917;stroke-opacity:0.985749"
       id="circle2"
       cx="256"
       cy="256"
       r="190" />
    <path
       id="rect2"
       style="fill:#ffffff;stroke-width:0.601269;stroke-opacity:0.985749"
       d="m 154.77061,198.18104 -1.17468,1.17468 a 17.053302,17.053302 89.999999 0 0 0,24.11702 l 90.34623,90.34622 a 17.053205,17.053205 179.99983 0 0 24.11695,-7e-5 l 90.34503,-90.34608 a 17.053402,17.053402 89.999834 0 0 -7e-5,-24.11709 l -1.17468,-1.17468 a 17.053176,17.053176 179.99979 0 0 -24.11693,9e-5 l -65.05337,65.05434 a 17.053177,17.053177 179.99978 0 1 -24.11693,9e-5 l -65.05453,-65.05452 a 17.053304,17.053304 180 0 0 -24.11702,0 z"
       transform="rotate(-90,266.38223,245.61779)" />
  </g>
</svg>
